<svg t="1610687675823" class="icon" viewBox="0 0 1024 1024" version="1.1" xmlns="http://www.w3.org/2000/svg" p-id="1419" width="600" height="600"><path d="M270.229333 661.333333C238.869333 661.333333 213.333333 690.048 213.333333 725.333333s25.536 64 56.896 64h293.333334C605.717333 789.333333 640 751.061333 640 704c0-53.077333-42.858667-95.744-93.162667-83.178667-10.24 2.538667-20.842667-2.773333-24.896-12.565333C503.146667 562.730667 461.909333 533.333333 416.896 533.333333c-57.28 0-106.410667 47.424-114.304 110.293334a21.333333 21.333333 0 0 1-24.405333 18.432 51.562667 51.562667 0 0 0-7.957334-0.725334m293.333334 170.666667h-293.333334C215.338667 832 170.666667 784.149333 170.666667 725.333333c0-56.490667 41.216-102.869333 93.098666-106.453333 17.685333-74.325333 80.576-128.213333 153.130667-128.213333 56.938667 0 109.184 33.152 137.173333 85.76C623.637333 570.282667 682.666667 630.037333 682.666667 704c0 70.592-53.418667 128-119.104 128M618.666667 277.333333a21.333333 21.333333 0 0 1-21.333334-21.333333v-42.666667a21.333333 21.333333 0 0 1 42.666667 0v42.666667a21.333333 21.333333 0 0 1-21.333333 21.333333M832 448h-42.666667a21.333333 21.333333 0 0 1 0-42.666667h42.666667a21.333333 21.333333 0 0 1 0 42.666667M448 448h-42.666667a21.333333 21.333333 0 0 1 0-42.666667h42.666667a21.333333 21.333333 0 0 1 0 42.666667M739.349333 327.317333a21.312 21.312 0 0 1-15.082666-36.416l30.186666-30.186666a21.333333 21.333333 0 0 1 30.165334 30.165333l-30.186667 30.186667a21.269333 21.269333 0 0 1-15.082667 6.250666M769.536 598.848a21.269333 21.269333 0 0 1-15.082667-6.250667l-30.186666-30.186666a21.333333 21.333333 0 0 1 30.165333-30.165334l30.186667 30.186667a21.312 21.312 0 0 1-15.082667 36.416M498.005333 327.317333a21.269333 21.269333 0 0 1-15.082666-6.250666l-30.186667-30.186667a21.333333 21.333333 0 0 1 30.165333-30.165333l30.186667 30.186666a21.312 21.312 0 0 1-15.082667 36.416" fill="#f4ea2a" p-id="1420"></path><path d="M618.666667 341.333333c-47.061333 0-85.333333 38.272-85.333334 85.333334s38.272 85.333333 85.333334 85.333333 85.333333-38.272 85.333333-85.333333-38.272-85.333333-85.333333-85.333334m0 213.333334c-70.570667 0-128-57.408-128-128s57.429333-128 128-128c70.613333 0 128 57.408 128 128s-57.386667 128-128 128" fill="#f4ea2a" p-id="1421"></path></svg>